<?xml version="1.0" standalone="no"?>
<!DOCTYPE svg PUBLIC "-//W3C//DTD SVG 20010904//EN"
 "http://www.w3.org/TR/2001/REC-SVG-20010904/DTD/svg10.dtd">
<svg version="1.0" xmlns="http://www.w3.org/2000/svg"
 width="2316.000000pt" height="2892.000000pt" viewBox="0 0 2316.000000 2892.000000"
 preserveAspectRatio="xMidYMid meet">

<g transform="translate(0.000000,2892.000000) scale(0.100000,-0.100000)"
fill="#000000" stroke="none">
<path d="M20715 25273 l-80 -4 0 -1158 0 -1158 110 -7 c60 -3 579 -6 1153 -6
891 0 1046 2 1058 14 12 13 14 181 14 1164 l0 1150 -31 6 c-31 6 -2072 5
-2224 -1z"/>
<path d="M18316 22905 c-3 -9 -6 -316 -6 -681 0 -365 -4 -664 -8 -664 -5 0
-62 16 -128 35 -255 75 -651 153 -986 195 -422 52 -326 51 -3361 55 -1555 3
-2832 7 -2837 10 -6 4 -11 -1581 -12 -4310 l-3 -4316 -145 197 c-80 108 -179
242 -220 298 -41 55 -196 265 -345 466 -148 201 -312 424 -365 495 -53 72
-136 184 -185 250 -49 66 -119 161 -155 210 -37 50 -336 455 -665 900 -329
446 -628 851 -665 900 -37 50 -329 446 -650 880 -321 435 -613 831 -650 880
-37 50 -244 331 -461 625 -509 689 -628 854 -1564 2158 l-260 362 -1147 0
-1148 0 0 -6650 0 -6650 880 0 880 0 2 -392 c2 -307 6 -393 16 -392 6 1 536 2
1177 3 l1165 1 0 1144 c0 629 -3 1158 -6 1175 l-7 32 -873 -3 -874 -3 0 3064
c0 1850 4 3061 9 3055 5 -5 503 -724 1107 -1599 1252 -1814 1649 -2390 2122
-3075 185 -267 379 -548 432 -625 53 -77 229 -331 390 -565 161 -234 492 -713
735 -1065 853 -1236 1250 -1812 1395 -2020 l145 -210 2780 0 c2932 0 2858 -1
3276 46 1568 174 2948 834 3994 1910 1122 1153 1838 2768 2015 4544 54 545 56
1164 4 1705 -118 1246 -497 2418 -1106 3418 -285 468 -595 861 -992 1258 -230
229 -386 368 -569 507 l-108 82 113 5 c111 5 114 6 158 40 25 19 48 40 52 45
4 6 7 521 5 1145 l-2 1135 -1171 3 c-1077 3 -1172 2 -1178 -13z m-1776 -3445
c1137 -80 2091 -487 2834 -1210 403 -392 698 -803 952 -1325 282 -580 454
-1198 531 -1910 25 -233 25 -894 0 -1125 -51 -471 -133 -856 -267 -1260 -152
-455 -339 -840 -595 -1225 -713 -1069 -1795 -1735 -3095 -1904 -335 -44 -331
-44 -1967 -48 l-1583 -4 0 5010 0 5011 1523 0 c925 0 1579 -4 1667 -10z"/>
<path d="M2315 7763 c-279 -2 -453 -7 -459 -13 -6 -6 -26 -10 -46 -10 l-37 0
-6 -1146 c-5 -844 -4 -1150 4 -1160 10 -12 208 -14 1175 -14 l1164 0 0 1175
c0 646 -3 1175 -6 1175 -3 0 -14 -5 -25 -10 -13 -7 -19 -7 -19 0 0 10 -445 10
-1745 3z"/>
</g>
</svg>
