<?xml version="1.0" standalone="no"?>
<!DOCTYPE svg PUBLIC "-//W3C//DTD SVG 20010904//EN"
 "http://www.w3.org/TR/2001/REC-SVG-20010904/DTD/svg10.dtd">
<svg version="1.0" xmlns="http://www.w3.org/2000/svg"
 width="2316.000000pt" height="2892.000000pt" viewBox="0 0 2316.000000 2892.000000"
 preserveAspectRatio="xMidYMid meet">

<g transform="translate(0.000000,2892.000000) scale(0.100000,-0.100000)"
fill="#000000" stroke="none">
<path d="M22956 22981 c-4 -7 -5 -15 -2 -18 9 -9 19 4 14 18 -4 11 -6 11 -12
0z"/>
<path d="M18316 22904 c-3 -9 -6 -315 -6 -680 0 -365 -4 -664 -8 -664 -5 0
-62 16 -128 35 -255 75 -651 153 -986 195 -422 52 -326 51 -3361 55 -1555 3
-2832 7 -2837 10 -6 4 -11 -1581 -12 -4310 l-3 -4315 -150 202 c-82 112 -199
271 -260 353 -61 83 -252 341 -425 575 -173 234 -350 475 -395 535 -45 61
-243 328 -440 595 -197 267 -404 548 -461 625 -57 77 -180 244 -274 370 -93
127 -216 293 -273 370 -57 77 -373 505 -702 950 -329 446 -628 851 -665 900
-37 50 -220 297 -406 550 -522 707 -675 918 -1619 2233 l-260 362 -1147 0
-1148 0 0 -6650 0 -6650 880 0 880 0 2 -392 c2 -307 6 -393 16 -392 6 1 536 2
1177 3 l1165 1 0 1144 c0 629 -3 1158 -6 1175 l-7 32 -873 -3 -874 -3 0 3064
c0 1831 4 3061 9 3055 5 -5 351 -504 768 -1109 418 -605 1267 -1836 1888
-2735 621 -899 1188 -1720 1260 -1825 1344 -1947 2328 -3373 2365 -3425 l46
-65 2780 0 c2931 0 2857 -1 3275 46 1568 174 2948 834 3994 1910 1122 1153
1838 2768 2015 4544 54 545 56 1164 4 1705 -118 1246 -497 2418 -1106 3418
-285 468 -595 861 -992 1258 -230 229 -386 368 -569 507 l-108 82 114 5 113 5
52 43 52 44 0 1132 0 1133 -112 6 c-62 4 -591 7 -1174 7 -959 0 -1062 -2
-1068 -16z m-1776 -3444 c1137 -80 2091 -487 2834 -1210 403 -392 698 -803
952 -1325 282 -580 454 -1198 531 -1910 25 -233 25 -894 0 -1125 -51 -471
-133 -856 -267 -1260 -152 -455 -339 -840 -595 -1225 -713 -1069 -1795 -1735
-3095 -1904 -335 -44 -331 -44 -1967 -48 l-1583 -4 0 5010 0 5011 1523 0 c925
0 1579 -4 1667 -10z"/>
<path d="M4090 7760 c0 -5 5 -10 10 -10 6 0 10 5 10 10 0 6 -4 10 -10 10 -5 0
-10 -4 -10 -10z"/>
<path d="M1770 7725 c0 -8 3 -15 6 -15 3 0 12 7 20 15 14 13 13 15 -5 15 -12
0 -21 -6 -21 -15z"/>
</g>
</svg>
