<?xml version="1.0" standalone="no"?>
<!DOCTYPE svg PUBLIC "-//W3C//DTD SVG 20010904//EN"
 "http://www.w3.org/TR/2001/REC-SVG-20010904/DTD/svg10.dtd">
<svg version="1.0" xmlns="http://www.w3.org/2000/svg"
 width="2316.000000pt" height="2892.000000pt" viewBox="0 0 2316.000000 2892.000000"
 preserveAspectRatio="xMidYMid meet">

<g transform="translate(0.000000,2892.000000) scale(0.100000,-0.100000)"
fill="#000000" stroke="none">
<path d="M22950 22975 c0 -8 5 -15 10 -15 6 0 10 7 10 15 0 8 -4 15 -10 15 -5
0 -10 -7 -10 -15z"/>
<path d="M22808 22943 c12 -2 32 -2 45 0 12 2 2 4 -23 4 -25 0 -35 -2 -22 -4z"/>
<path d="M18322 22908 c-9 -9 -12 -174 -12 -680 0 -367 -4 -668 -8 -668 -5 0
-62 16 -128 35 -255 75 -651 153 -986 195 -422 52 -326 51 -3361 55 -1555 3
-2832 7 -2837 10 -6 4 -11 -1581 -12 -4310 l-3 -4315 -91 122 c-50 68 -367
497 -704 953 -337 457 -659 893 -716 970 -57 77 -388 525 -735 995 -348 470
-909 1231 -1249 1690 -1582 2142 -1487 2011 -2679 3672 l-156 218 -1147 0
-1148 0 0 -6650 0 -6650 880 0 880 0 2 -392 c2 -307 6 -393 16 -392 6 1 536 2
1177 3 l1165 1 0 1138 c0 625 -3 1154 -7 1175 l-6 38 -873 -3 -874 -3 0 3064
c0 1849 4 3061 9 3055 5 -5 393 -565 862 -1244 469 -679 896 -1298 949 -1375
491 -711 712 -1032 880 -1275 193 -280 426 -618 1305 -1890 241 -349 548 -795
683 -990 135 -195 354 -512 487 -705 133 -192 358 -519 500 -725 143 -206 349
-505 460 -665 l200 -290 2780 0 c2932 0 2858 -1 3276 46 1210 134 2326 565
3244 1251 1640 1225 2656 3253 2795 5575 13 219 13 788 0 1003 -92 1513 -536
2875 -1314 4030 -243 360 -482 647 -810 976 -230 229 -385 368 -569 507 l-108
82 110 3 c100 2 111 5 135 27 15 14 31 25 35 25 4 0 17 10 29 23 l22 23 0
1131 0 1130 -112 6 c-62 4 -588 7 -1168 7 -808 0 -1059 -3 -1068 -12z m-1782
-3448 c1137 -80 2091 -487 2834 -1210 403 -392 698 -803 952 -1325 282 -580
454 -1198 531 -1910 25 -233 25 -894 0 -1125 -51 -471 -133 -856 -267 -1260
-152 -455 -339 -840 -595 -1225 -714 -1071 -1793 -1734 -3095 -1904 -335 -44
-331 -44 -1967 -48 l-1583 -4 0 5010 0 5011 1523 0 c925 0 1579 -4 1667 -10z"/>
<path d="M4090 7760 c0 -5 5 -10 10 -10 6 0 10 5 10 10 0 6 -4 10 -10 10 -5 0
-10 -4 -10 -10z"/>
<path d="M1770 7725 c0 -8 3 -15 6 -15 3 0 12 7 20 15 14 13 13 15 -5 15 -12
0 -21 -6 -21 -15z"/>
</g>
</svg>
